HIERARCHY
ROOT Hips
{
	OFFSET 0.000000 0.000000 0.000000
	CHANNELS 6 Xposition Yposition Zposition Zrotation Yrotation Xrotation 
	JOINT LowerBack
	{
		OFFSET 0.000000 0.000000 0.000000
		CHANNELS 3 Zrotation Yrotation Xrotation
		JOINT Spine
		{
			OFFSET 0.028270 2.035590 -0.193380
			CHANNELS 3 Zrotation Yrotation Xrotation
			JOINT Spine1
			{
				OFFSET 0.056720 2.048850 -0.042750
				CHANNELS 3 Zrotation Yrotation Xrotation
				JOINT Neck
				{
					OFFSET 0.000000 0.000000 0.000000
					CHANNELS 3 Zrotation Yrotation Xrotation
					JOINT Neck1
					{
						OFFSET -0.054170 1.746240 0.172020
						CHANNELS 3 Zrotation Yrotation Xrotation
						JOINT Head
						{
							OFFSET 0.104070 1.761360 -0.123970
							CHANNELS 3 Zrotation Yrotation Xrotation
							End Site
							{
								OFFSET 0.000000 0.000000 0.000000
							}
						}
					}
				}
				JOINT LeftShoulder
				{
					OFFSET 0.000000 0.000000 0.000000
					CHANNELS 3 Zrotation Yrotation Xrotation
					JOINT LeftArm
					{
						OFFSET 3.362410 1.200890 -0.311210
						CHANNELS 3 Zrotation Yrotation Xrotation
						JOINT LeftForeArm
						{
							OFFSET 4.983000 -0.000000 -0.000000
							CHANNELS 3 Zrotation Yrotation Xrotation
							JOINT LeftHand
							{
								OFFSET 3.483560 -0.000000 -0.000000
								CHANNELS 3 Zrotation Yrotation Xrotation
								JOINT LeftFingerBase
								{
									OFFSET 0.000000 0.000000 0.000000
									CHANNELS 3 Zrotation Yrotation Xrotation
									JOINT LeftHandIndex1
									{
										OFFSET 0.715260 -0.000000 -0.000000
										CHANNELS 3 Zrotation Yrotation Xrotation
										End Site
										{
											OFFSET 0.000000 0.000000 0.000000
										}
									}
								}
								JOINT LThumb
								{
									OFFSET 0.000000 0.000000 0.000000
									CHANNELS 3 Zrotation Yrotation Xrotation
									End Site
									{
										OFFSET 0.000000 0.000000 0.000000
									}
								}
							}
						}
					}
				}
				JOINT RightShoulder
				{
					OFFSET 0.000000 0.000000 0.000000
					CHANNELS 3 Zrotation Yrotation Xrotation
					JOINT RightArm
					{
						OFFSET -3.136600 1.374050 -0.404650
						CHANNELS 3 Zrotation Yrotation Xrotation
						JOINT RightForeArm
						{
							OFFSET -5.241900 -0.000000 -0.000000
							CHANNELS 3 Zrotation Yrotation Xrotation
							JOINT RightHand
							{
								OFFSET -3.444170 -0.000000 -0.000000
								CHANNELS 3 Zrotation Yrotation Xrotation
								JOINT RightFingerBase
								{
									OFFSET 0.000000 0.000000 0.000000
									CHANNELS 3 Zrotation Yrotation Xrotation
									JOINT RightHandIndex1
									{
										OFFSET -0.622530 -0.000000 -0.000000
										CHANNELS 3 Zrotation Yrotation Xrotation
										End Site
										{
											OFFSET 0.000000 0.000000 0.000000
										}
									}
								}
								JOINT RThumb
								{
									OFFSET 0.000000 0.000000 0.000000
									CHANNELS 3 Zrotation Yrotation Xrotation
									End Site
									{
										OFFSET 0.000000 0.000000 0.000000
									}
								}
							}
						}
					}
				}
			}
		}
	}
}
}
MOTION
Frames: 19
Frame Time: 0.008333
4.721296 17.099757 1.784884 24.966630 86.591865 52.335071 -0.759238 0.044946 2.226075 -1.059389 0.063760 -2.541717 -6.067899 -0.040535 0.376082 9.788478 4.353196 2.991450 -3.751518 -0.368174 2.548449 0.000000 0.000000 0.000000 -4.814292 -2.103903 2.549587 -61.184015 -10.216510 -4.967261 -3.079934 -0.514285 -0.017144 14.341767 -0.280738 -0.044507 -0.078679 0.070723 0.000000 0.000000 0.000000 0.000000 0.000000 0.000000 0.000000 15.965607 4.073912 -1.021612 80.245782 27.354133 37.713120 1.850213 37.181706 0.006413 1.684573 12.335672 0.185923 -0.001887 -0.208736 -0.000000 0.000000 0.000000 0.000000 0.000000 0.000000 0.000000 
4.974538 17.237581 1.783541 22.281152 86.184099 49.875710 -1.155338 0.286715 2.065562 -1.161192 0.321048 -2.563886 -6.059625 0.218444 0.465941 9.481801 4.123748 2.912052 -3.789488 -0.370934 2.522036 0.000000 0.000000 0.000000 -4.560276 -1.486500 2.517889 -60.721703 -9.612231 -5.563257 -3.112184 0.237608 -0.017204 14.209501 0.387096 0.039975 -0.078248 0.067741 0.000000 0.000000 0.000000 0.000000 0.000000 0.000000 0.000000 15.861206 4.048921 -1.111162 80.619786 27.440051 39.574314 1.772938 39.620129 0.006663 1.815098 12.379133 0.201431 -0.004829 -0.221786 0.000000 0.000000 0.000000 0.000000 0.000000 0.000000 0.000000 
5.228303 17.370986 1.780049 19.157160 85.727857 46.951914 -1.518711 0.537016 1.928286 -1.258064 0.585661 -2.585001 -6.055438 0.484594 0.543021 9.167556 3.920071 2.837997 -3.820226 -0.373352 2.497129 0.000000 0.000000 0.000000 -4.298874 -0.865209 2.481102 -60.302163 -8.955541 -5.791802 -3.165481 0.747525 -0.016746 13.819997 0.987938 0.112564 -0.079641 0.064081 0.000000 0.000000 0.000000 0.000000 0.000000 0.000000 0.000000 15.711407 4.064323 -1.198399 81.049200 27.509814 41.065135 1.709627 41.904505 0.007082 1.971705 12.302029 0.217939 -0.007678 -0.234002 -0.000000 0.000000 0.000000 0.000000 0.000000 0.000000 0.000000 
5.482463 17.498295 1.774823 16.000614 85.237862 43.964556 -1.850277 0.788092 1.815911 -1.349516 0.849872 -2.604371 -6.055271 0.750258 0.607154 8.850324 3.726846 2.767805 -3.844222 -0.375439 2.473408 0.000000 0.000000 0.000000 -4.029932 -0.262751 2.440705 -59.923594 -8.229447 -5.679667 -3.239636 1.031102 -0.015809 13.166993 1.508067 0.168160 -0.082711 0.059525 0.000000 0.000000 0.000000 0.000000 0.000000 0.000000 0.000000 15.522840 4.098366 -1.283106 81.537784 27.573192 42.282784 1.659586 44.020021 0.007679 2.160381 12.126120 0.235845 -0.010547 -0.245026 -0.000000 0.000000 0.000000 0.000000 0.000000 0.000000 0.000000 
5.736983 17.617710 1.768210 13.039723 84.727978 41.139631 -2.153471 1.029008 1.728274 -1.434957 1.102945 -2.623310 -6.056936 1.004574 0.652556 8.530580 3.543496 2.701262 -3.861350 -0.377192 2.451060 0.000000 0.000000 0.000000 -3.748482 0.296858 2.400915 -59.600512 -7.256325 -5.255759 -3.334635 0.759443 -0.014652 12.270329 2.094355 0.220859 -0.087237 0.053619 0.000000 0.000000 0.000000 0.000000 0.000000 0.000000 0.000000 15.293290 4.151293 -1.363522 82.089938 27.625890 43.290736 1.623291 45.962080 0.008496 2.389583 11.878625 0.255952 -0.013474 -0.254738 -0.000000 0.000000 0.000000 0.000000 0.000000 0.000000 0.000000 
5.991857 17.727514 1.760478 10.358386 84.214149 38.558996 -2.428667 1.258913 1.657668 -1.514456 1.343729 -2.641781 -6.061594 1.246512 0.683157 8.212834 3.383651 2.643295 -3.868898 -0.378492 2.431582 0.000000 0.000000 0.000000 -3.459548 0.819447 2.363158 -59.296169 -6.300584 -4.641083 -3.442602 0.550428 -0.013202 11.171108 2.483752 0.240262 -0.092777 0.047063 0.000000 0.000000 0.000000 0.000000 0.000000 0.000000 0.000000 15.015367 4.225314 -1.445671 82.703275 27.648817 44.106234 1.595299 47.742442 0.009472 2.676530 11.579138 0.279954 -0.017146 -0.263049 -0.000000 0.000000 0.000000 0.000000 0.000000 0.000000 0.000000 
6.247111 17.826097 1.751761 7.937959 83.708618 36.206748 -2.673768 1.473394 1.597722 -1.586987 1.567591 -2.660597 -6.068313 1.471416 0.699992 7.896119 3.241585 2.590565 -3.867634 -0.379343 2.414366 0.000000 0.000000 0.000000 -3.162468 1.301251 2.328996 -59.009736 -5.336988 -3.883745 -3.559220 0.379265 -0.011637 9.927976 2.718939 0.234965 -0.098900 0.039934 0.000000 0.000000 0.000000 0.000000 0.000000 0.000000 0.000000 14.690696 4.311710 -1.529555 83.374651 27.650798 44.789227 1.574467 49.361689 0.010608 3.015955 11.259157 0.307253 -0.021533 -0.270063 -0.000000 0.000000 0.000000 0.000000 0.000000 0.000000 0.000000 
6.502772 17.912237 1.742103 5.726132 83.222214 34.034255 -2.883961 1.669926 1.542505 -1.651252 1.771678 -2.679433 -6.077122 1.676464 0.708508 7.579089 3.094718 2.535168 -3.860300 -0.379814 2.397534 0.000000 0.000000 0.000000 -2.861838 1.738937 2.298624 -58.735185 -4.366177 -2.962884 -3.680106 0.261278 -0.010130 8.607173 2.851398 0.214765 -0.105179 0.032304 0.000000 0.000000 0.000000 0.000000 0.000000 0.000000 0.000000 14.331169 4.383501 -1.613735 84.098743 27.664655 45.428237 1.560345 50.808858 0.011879 3.383672 10.961134 0.336149 -0.026217 -0.276025 -0.000000 0.000000 0.000000 0.000000 0.000000 0.000000 0.000000 
6.758694 17.985056 1.731637 3.686879 82.765542 32.008171 -3.057740 1.844954 1.489188 -1.706200 1.952403 -2.700972 -6.087014 1.857836 0.700312 7.264074 2.987763 2.484743 -3.845021 -0.379842 2.383379 0.000000 0.000000 0.000000 -2.557681 2.140077 2.277961 -58.473865 -3.339835 -2.054473 -3.799252 0.104385 -0.008920 7.286056 2.949980 0.189061 -0.111275 0.024613 -0.000000 0.000000 0.000000 0.000000 0.000000 0.000000 0.000000 13.927594 4.488792 -1.700526 84.860670 27.641023 45.951509 1.550468 52.126340 0.013313 3.816497 10.672559 0.369643 -0.031984 -0.281053 -0.000000 0.000000 0.000000 0.000000 0.000000 0.000000 0.000000 
7.014657 18.044234 1.720556 1.834771 82.350478 30.144139 -3.197237 1.996231 1.438700 -1.752184 2.107675 -2.723396 -6.099481 2.013493 0.682482 6.954338 2.893606 2.430732 -3.826590 -0.379589 2.369546 0.000000 0.000000 0.000000 -2.260739 2.501179 2.267014 -58.209835 -2.285117 -1.088126 -3.913199 -0.050517 -0.008151 6.026596 3.078315 0.164254 -0.116925 0.016980 -0.000000 0.000000 0.000000 0.000000 0.000000 0.000000 0.000000 13.508269 4.594823 -1.787266 85.645558 27.624041 46.441023 1.544315 53.300174 0.014855 4.277042 10.429102 0.405433 -0.038221 -0.285476 -0.000000 0.000000 0.000000 0.000000 0.000000 0.000000 0.000000 
7.270211 18.089878 1.709109 0.205741 81.989383 28.478076 -3.308377 2.120775 1.395792 -1.790089 2.234916 -2.746229 -6.115105 2.140782 0.654394 6.655114 2.821483 2.373940 -3.807159 -0.379146 2.356083 0.000000 0.000000 0.000000 -1.981255 2.823160 2.268483 -57.930335 -1.206616 -0.090204 -4.018260 -0.218294 -0.007961 4.885159 3.299181 0.143740 -0.121972 0.009675 -0.000000 0.000000 0.000000 0.000000 0.000000 0.000000 0.000000 13.089689 4.709143 -1.873279 86.432706 27.613950 46.888349 1.540330 54.342964 0.016459 4.758209 10.233656 0.443121 -0.044930 -0.289501 -0.000000 0.000000 0.000000 0.000000 0.000000 0.000000 0.000000 
7.524864 18.122402 1.697604 -1.091186 81.696230 27.121006 -3.409291 2.214176 1.364055 -1.823401 2.330720 -2.769824 -6.134077 2.236202 0.612944 6.374430 2.788209 2.318717 -3.788353 -0.378626 2.343845 0.000000 0.000000 0.000000 -1.724049 3.102281 2.285504 -57.625692 -0.090138 0.832196 -4.111976 -0.450988 -0.008457 3.909092 3.671056 0.129221 -0.126383 0.003071 -0.000000 0.000000 0.000000 0.000000 0.000000 0.000000 0.000000 12.689452 4.847860 -1.957893 87.199186 27.599364 47.258439 1.536700 55.273259 0.018100 5.256886 10.076661 0.482607 -0.052225 -0.293289 -0.000000 0.000000 0.000000 0.000000 0.000000 0.000000 0.000000 
7.778129 18.142324 1.686063 -2.021307 81.480958 26.111716 -3.507839 2.275738 1.346705 -1.853792 2.394830 -2.792931 -6.156294 2.299545 0.561029 6.115371 2.786156 2.264178 -3.772710 -0.378144 2.332226 0.000000 0.000000 0.000000 -1.502540 3.336575 2.317650 -57.284393 1.036104 1.715748 -4.192769 -0.731957 -0.009647 3.125918 4.225974 0.120098 -0.130142 -0.002699 -0.000000 0.000000 0.000000 0.000000 0.000000 0.000000 0.000000 12.325059 5.000771 -2.039625 87.926130 27.596817 47.563532 1.532551 56.089845 0.019694 5.741343 9.964034 0.521792 -0.059640 -0.297022 -0.000000 0.000000 0.000000 0.000000 0.000000 0.000000 0.000000 
8.029473 18.150064 1.674258 -2.588266 81.347889 25.451026 -3.606793 2.307205 1.345679 -1.881926 2.429155 -2.814842 -6.180669 2.332778 0.499651 5.878194 2.814508 2.212176 -3.761036 -0.377756 2.321406 0.000000 0.000000 0.000000 -1.326564 3.525068 2.363902 -56.903232 2.155331 2.553980 -4.259464 -1.065104 -0.011490 2.552433 4.977297 0.116770 -0.133272 -0.007475 -0.000000 0.000000 0.000000 0.000000 0.000000 0.000000 0.000000 12.001856 5.166907 -2.117871 88.597660 27.609472 47.793553 1.527056 56.797896 0.021170 6.185174 9.892568 0.558677 -0.066788 -0.300798 -0.000000 0.000000 0.000000 0.000000 0.000000 0.000000 0.000000 
8.278569 18.145913 1.661943 -2.815451 81.294795 25.120384 -3.706362 2.312612 1.361886 -1.908024 2.437753 -2.834927 -6.205563 2.340044 0.429661 5.661665 2.871342 2.164876 -3.753107 -0.377475 2.311694 0.000000 0.000000 0.000000 -1.201280 3.667594 2.422234 -56.485881 3.256316 3.316791 -4.311403 -1.462330 -0.013901 2.197521 5.919387 0.120640 -0.135805 -0.011098 -0.000000 0.000000 0.000000 0.000000 0.000000 0.000000 0.000000 11.718408 5.345637 -2.192256 89.201948 27.635759 47.934732 1.519619 57.403880 0.022453 6.561904 9.857285 0.591065 -0.073247 -0.304687 -0.000000 0.000000 0.000000 0.000000 0.000000 0.000000 0.000000 
8.525134 18.130005 1.648449 -2.848714 81.310290 24.972467 -3.787784 2.301292 1.402071 -1.928372 2.429051 -2.851014 -6.229036 2.329917 0.354171 5.458819 2.946127 2.121362 -3.748127 -0.377238 2.302690 0.000000 0.000000 0.000000 -1.135563 3.771283 2.488532 -56.040408 4.304369 4.053741 -4.347676 -1.899160 -0.016725 2.054234 7.018566 0.134408 -0.137702 -0.013558 -0.000000 0.000000 0.000000 0.000000 0.000000 0.000000 0.000000 11.463363 5.528565 -2.262534 89.731530 27.682054 47.992387 1.510231 57.908964 0.023461 6.838062 9.860136 0.616657 -0.078395 -0.308726 -0.000000 0.000000 0.000000 0.000000 0.000000 0.000000 0.000000 
8.769022 18.102477 1.633479 -2.752903 81.380567 24.940612 -3.845962 2.281048 1.469885 -1.942094 2.410626 -2.861862 -6.249133 2.310104 0.274538 5.266213 3.032611 2.082311 -3.744856 -0.376995 2.294429 0.000000 0.000000 0.000000 -1.128590 3.839295 2.559188 -55.578778 5.278647 4.768224 -4.368486 -2.365409 -0.019784 2.111106 8.228483 0.161778 -0.138931 -0.014811 -0.000000 0.000000 0.000000 0.000000 0.000000 0.000000 0.000000 11.227366 5.711994 -2.328217 90.179942 27.745489 47.960037 1.498721 58.319504 0.024122 6.990281 9.898672 0.633155 -0.081806 -0.312951 -0.000000 0.000000 0.000000 0.000000 0.000000 0.000000 0.000000 
9.010246 18.063466 1.616904 -2.581778 81.490374 24.965892 -3.879175 2.259650 1.571621 -1.949054 2.390195 -2.865527 -6.264335 2.288472 0.192869 5.081898 3.120140 2.046669 -3.742379 -0.376694 2.286468 0.000000 0.000000 0.000000 -1.176199 3.875261 2.630316 -55.112609 6.149248 5.496214 -4.374842 -2.832080 -0.022867 2.342178 9.484579 0.205850 -0.139438 -0.014922 -0.000000 0.000000 0.000000 0.000000 0.000000 0.000000 0.000000 11.004588 5.887457 -2.388216 90.543647 27.826924 47.841977 1.485271 58.638662 0.024380 7.000521 9.974631 0.639261 -0.083122 -0.317416 -0.000000 0.000000 0.000000 0.000000 0.000000 0.000000 0.000000 
9.249242 18.012713 1.598199 -2.517301 81.621740 24.883194 -3.870028 2.245577 1.690377 -1.945977 2.375372 -2.866182 -6.273708 2.272545 0.107203 4.903134 3.220095 2.015800 -3.737974 -0.376230 2.279598 0.000000 0.000000 0.000000 -1.270453 3.887738 2.699920 -54.663185 6.945386 6.042243 -4.366413 -3.359321 -0.025862 2.765448 10.753217 0.273227 -0.139210 -0.013648 -0.000000 0.000000 0.000000 0.000000 0.000000 0.000000 0.000000 10.777228 6.072488 -2.441847 90.816617 27.896926 47.599390 1.469652 58.894707 0.024261 6.881211 10.065554 0.634275 -0.082521 -0.321979 -0.000000 0.000000 0.000000 0.000000 0.000000 0.000000 0.000000 
